# xmcd
#
# Track frame offsets:
#	150
#	15770
#	32247
#	51355
#	67970
#	86870
#	103554
#	118958
#	134069
#	152788
#	175236
#	190338
#	213774
#	223968
#	240636
#	260281
#	286191
#	311080
#
# Disc length: 4528 seconds
#
# Revision: 1
# Processed by: cddbd v1.5.2PL0 Copyright (c) Steve Scherf et al.
# Submitted via: audiograbber 1.83.01
#
DISCID=0b11ae12
DTITLE=Mr. Da-Nos - Kingshouse 16
DYEAR=2011
DGENRE=House
TTITLE0=Mr. Da-Nos vs. Mish - The Night Is Young (Official Kingshouse Hymn)
TTITLE1=David Guetta and Chris Willis feat. Fergie&Lmfao - Gttin' Over You (Exten
TTITLE1=ded)
TTITLE2=Mr. Da-Nos - This Night (Original Vuvuzela Mix)
TTITLE3=Laserkraft 3D - Nein, Mann! (Original Mix)
TTITLE4=Mr. Da-Nos feat. Roby Rob - Na Na Hey Hey Kiss Him Goodbye (Extended Mr
TTITLE4=Da-Nos&Roby Rob Mix)
TTITLE5=Gramophonedzie - Why Don't You (Original Mix)
TTITLE6=Jack Holiday - Love For You (Original Mix)
TTITLE7=Andrew Spencer and Daniel Slam - No Soul (Bernasconi&Farenthide Remix)
TTITLE8=Eddy Wata - I Like The Way (Original Extended Mix)
TTITLE9=Romeo Cooper - C' Est Dur (Farina&Lysark Remix)
TTITLE10=Electroluv - Stand Up (If You're Ready)
TTITLE11=Tenaj - What's Your Status (Mr. Da-Nos Remix)
TTITLE12=King Moca - Leili (Drop Edit)
TTITLE13=Mish feat. Flava and Stevenson - Chill Out
TTITLE14=Bob Sinclar and Sahara feat. Shaggy - I Wanna (Club Version)
TTITLE15=Ellrich and Plaice - Fucking Society (Ellrich&Plaice Mix)
TTITLE16=Mr. Pink and Anahi Sanchez - Circle Of Love (Club Mix)
TTITLE17=Tiesto feat. CC Sheffield - Escape Me (Avicii's Remix At Night)
EXTD=
EXTT0=
EXTT1=
EXTT2=
EXTT3=
EXTT4=
EXTT5=
EXTT6=
EXTT7=
EXTT8=
EXTT9=
EXTT10=
EXTT11=
EXTT12=
EXTT13=
EXTT14=
EXTT15=
EXTT16=
EXTT17=
PLAYORDER=
